<svg width="47" height="25" viewBox="0 0 47 25" fill="none" xmlns="http://www.w3.org/2000/svg">
<path d="M5.80273 9H3.10955V0.272727H5.92205C6.76864 0.272727 7.49308 0.447443 8.09535 0.796875C8.69762 1.14347 9.15927 1.64205 9.48029 2.29261C9.80131 2.94034 9.96183 3.71591 9.96183 4.61932C9.96183 5.52841 9.79989 6.31108 9.47603 6.96733C9.15217 7.62074 8.68058 8.12358 8.06126 8.47585C7.44194 8.82528 6.6891 9 5.80273 9ZM4.16637 8.0625H5.73455C6.45614 8.0625 7.05415 7.9233 7.52859 7.64489C8.00302 7.36648 8.35671 6.97017 8.58967 6.45597C8.82262 5.94176 8.9391 5.32955 8.9391 4.61932C8.9391 3.91477 8.82404 3.30824 8.59393 2.79972C8.36381 2.28835 8.02006 1.89631 7.56268 1.62358C7.10529 1.34801 6.53569 1.21023 5.85387 1.21023H4.16637V8.0625ZM16.5073 2.45455C16.4561 2.02273 16.2488 1.6875 15.8851 1.44886C15.5215 1.21023 15.0755 1.09091 14.5471 1.09091C14.1607 1.09091 13.8226 1.15341 13.5328 1.27841C13.2459 1.40341 13.0215 1.57528 12.8596 1.79403C12.7005 2.01278 12.6209 2.26136 12.6209 2.53977C12.6209 2.77273 12.6763 2.97301 12.7871 3.14062C12.9007 3.3054 13.0456 3.44318 13.2218 3.55398C13.3979 3.66193 13.5826 3.75142 13.7757 3.82244C13.9689 3.89062 14.1465 3.94602 14.3084 3.98864L15.1948 4.22727C15.4221 4.28693 15.6749 4.36932 15.9533 4.47443C16.2346 4.57955 16.503 4.72301 16.7587 4.90483C17.0172 5.08381 17.2303 5.31392 17.3979 5.59517C17.5655 5.87642 17.6493 6.22159 17.6493 6.63068C17.6493 7.10227 17.5257 7.52841 17.2786 7.90909C17.0343 8.28977 16.6763 8.59233 16.2047 8.81676C15.736 9.04119 15.1664 9.15341 14.4959 9.15341C13.8709 9.15341 13.3297 9.05256 12.8723 8.85085C12.4178 8.64915 12.0598 8.3679 11.7985 8.0071C11.54 7.64631 11.3936 7.22727 11.3596 6.75H12.4505C12.4789 7.07955 12.5897 7.35227 12.7828 7.56818C12.9789 7.78125 13.226 7.94034 13.5243 8.04545C13.8255 8.14773 14.1493 8.19886 14.4959 8.19886C14.8993 8.19886 15.2615 8.13352 15.5826 8.00284C15.9036 7.86932 16.1578 7.68466 16.3453 7.44886C16.5328 7.21023 16.6266 6.93182 16.6266 6.61364C16.6266 6.32386 16.5456 6.08807 16.3837 5.90625C16.2218 5.72443 16.0087 5.5767 15.7445 5.46307C15.4803 5.34943 15.1948 5.25 14.888 5.16477L13.8141 4.85795C13.1323 4.66193 12.5925 4.3821 12.1948 4.01847C11.7971 3.65483 11.5982 3.17898 11.5982 2.59091C11.5982 2.10227 11.7303 1.67614 11.9945 1.3125C12.2615 0.946023 12.6195 0.661932 13.0684 0.460227C13.5201 0.255682 14.0243 0.153409 14.5811 0.153409C15.1436 0.153409 15.6436 0.254261 16.0811 0.455966C16.5186 0.654829 16.8652 0.927556 17.1209 1.27415C17.3794 1.62074 17.5158 2.0142 17.53 2.45455H16.5073ZM20.4437 0.272727V9H19.3869V0.272727H20.4437ZM27.3354 2.45455C27.2843 2.02273 27.0769 1.6875 26.7132 1.44886C26.3496 1.21023 25.9036 1.09091 25.3752 1.09091C24.9888 1.09091 24.6507 1.15341 24.361 1.27841C24.074 1.40341 23.8496 1.57528 23.6877 1.79403C23.5286 2.01278 23.449 2.26136 23.449 2.53977C23.449 2.77273 23.5044 2.97301 23.6152 3.14062C23.7289 3.3054 23.8738 3.44318 24.0499 3.55398C24.226 3.66193 24.4107 3.75142 24.6039 3.82244C24.7971 3.89062 24.9746 3.94602 25.1365 3.98864L26.0229 4.22727C26.2502 4.28693 26.503 4.36932 26.7814 4.47443C27.0627 4.57955 27.3311 4.72301 27.5868 4.90483C27.8453 5.08381 28.0584 5.31392 28.226 5.59517C28.3936 5.87642 28.4775 6.22159 28.4775 6.63068C28.4775 7.10227 28.3539 7.52841 28.1067 7.90909C27.8624 8.28977 27.5044 8.59233 27.0328 8.81676C26.5641 9.04119 25.9945 9.15341 25.324 9.15341C24.699 9.15341 24.1578 9.05256 23.7005 8.85085C23.2459 8.64915 22.888 8.3679 22.6266 8.0071C22.3681 7.64631 22.2218 7.22727 22.1877 6.75H23.2786C23.307 7.07955 23.4178 7.35227 23.611 7.56818C23.807 7.78125 24.0542 7.94034 24.3525 8.04545C24.6536 8.14773 24.9775 8.19886 25.324 8.19886C25.7275 8.19886 26.0897 8.13352 26.4107 8.00284C26.7317 7.86932 26.986 7.68466 27.1735 7.44886C27.361 7.21023 27.4547 6.93182 27.4547 6.61364C27.4547 6.32386 27.3738 6.08807 27.2118 5.90625C27.0499 5.72443 26.8368 5.5767 26.5726 5.46307C26.3084 5.34943 26.0229 5.25 25.7161 5.16477L24.6422 4.85795C23.9604 4.66193 23.4206 4.3821 23.0229 4.01847C22.6252 3.65483 22.4263 3.17898 22.4263 2.59091C22.4263 2.10227 22.5584 1.67614 22.8226 1.3125C23.0897 0.946023 23.4476 0.661932 23.8965 0.460227C24.3482 0.255682 24.8525 0.153409 25.4093 0.153409C25.9718 0.153409 26.4718 0.254261 26.9093 0.455966C27.3468 0.654829 27.6934 0.927556 27.949 1.27415C28.2076 1.62074 28.3439 2.0142 28.3581 2.45455H27.3354ZM29.7377 1.21023V0.272727H36.2832V1.21023H33.5389V9H32.4821V1.21023H29.7377ZM37.2527 9H36.1447L39.3493 0.272727H40.4402L43.6447 9H42.5368L39.9288 1.65341H39.8606L37.2527 9ZM37.6618 5.59091H42.1277V6.52841H37.6618V5.59091ZM0.256037 24V15.2727H1.31286V23.0625H5.36967V24H0.256037ZM12.7333 15.2727H13.7901V21.0511C13.7901 21.6477 13.6495 22.1804 13.3683 22.6491C13.0898 23.1151 12.6964 23.483 12.1879 23.7528C11.6793 24.0199 11.0827 24.1534 10.3981 24.1534C9.71342 24.1534 9.11683 24.0199 8.60831 23.7528C8.09979 23.483 7.7049 23.1151 7.42365 22.6491C7.14524 22.1804 7.00604 21.6477 7.00604 21.0511V15.2727H8.06286V20.9659C8.06286 21.392 8.15661 21.7713 8.34411 22.1037C8.53161 22.4332 8.79865 22.6932 9.14524 22.8835C9.49467 23.071 9.91229 23.1648 10.3981 23.1648C10.8839 23.1648 11.3015 23.071 11.6509 22.8835C12.0004 22.6932 12.2674 22.4332 12.4521 22.1037C12.6396 21.7713 12.7333 21.392 12.7333 20.9659V15.2727ZM16.4119 15.2727L18.6619 18.9034H18.7301L20.9801 15.2727H22.2244L19.4801 19.6364L22.2244 24H20.9801L18.7301 20.4375H18.6619L16.4119 24H15.1676L17.9801 19.6364L15.1676 15.2727H16.4119ZM29.3271 15.2727H30.3839V21.0511C30.3839 21.6477 30.2433 22.1804 29.962 22.6491C29.6836 23.1151 29.2901 23.483 28.7816 23.7528C28.2731 24.0199 27.6765 24.1534 26.9918 24.1534C26.3072 24.1534 25.7106 24.0199 25.2021 23.7528C24.6935 23.483 24.2987 23.1151 24.0174 22.6491C23.739 22.1804 23.5998 21.6477 23.5998 21.0511V15.2727H24.6566V20.9659C24.6566 21.392 24.7504 21.7713 24.9379 22.1037C25.1254 22.4332 25.3924 22.6932 25.739 22.8835C26.0884 23.071 26.506 23.1648 26.9918 23.1648C27.4776 23.1648 27.8952 23.071 28.2447 22.8835C28.5941 22.6932 28.8612 22.4332 29.0458 22.1037C29.2333 21.7713 29.3271 21.392 29.3271 20.9659V15.2727ZM32.4943 24V15.2727H35.4432C36.125 15.2727 36.6847 15.3892 37.1222 15.6222C37.5597 15.8523 37.8835 16.169 38.0938 16.5724C38.304 16.9759 38.4091 17.4347 38.4091 17.9489C38.4091 18.4631 38.304 18.919 38.0938 19.3168C37.8835 19.7145 37.5611 20.027 37.1264 20.2543C36.6918 20.4787 36.1364 20.5909 35.4602 20.5909H33.0739V19.6364H35.4261C35.892 19.6364 36.267 19.5682 36.5511 19.4318C36.8381 19.2955 37.0455 19.1023 37.1733 18.8523C37.304 18.5994 37.3693 18.2983 37.3693 17.9489C37.3693 17.5994 37.304 17.294 37.1733 17.0327C37.0426 16.7713 36.8338 16.5696 36.5469 16.4276C36.2599 16.2827 35.8807 16.2102 35.4091 16.2102H33.5511V24H32.4943ZM36.6023 20.0795L38.75 24H37.5227L35.4091 20.0795H36.6023ZM39.1271 15.2727H40.3374L42.7578 19.3466H42.8601L45.2805 15.2727H46.4908L43.3374 20.4034V24H42.2805V20.4034L39.1271 15.2727Z" fill="white"/>
</svg>
